<svg xmlns="http://www.w3.org/2000/svg" version="1.1" xmlns:xlink="http://www.w3.org/1999/xlink" xmlns:svgjs="http://svgjs.dev/svgjs" width="1000" height="992" viewBox="0 0 1000 992"><g transform="matrix(1,0,0,1,0.9799529808847183,-1.403574468084912)"><svg viewBox="0 0 142 141" data-background-color="#ffffff" preserveAspectRatio="xMidYMid meet" height="992" width="1000" xmlns="http://www.w3.org/2000/svg" xmlns:xlink="http://www.w3.org/1999/xlink"><g id="tight-bounds" transform="matrix(1,0,0,1,-0.13915332328562613,0.19949999999997203)"><svg viewBox="0 0 142.27830664657125 140.60052000000002" height="140.60052000000002" width="142.27830664657125"><g><svg viewBox="0 0 142.27830664657125 140.60052000000002" height="140.60052000000002" width="142.27830664657125"><g><svg viewBox="0 0 142.27830664657125 140.60052000000002" height="140.60052000000002" width="142.27830664657125"><g><path d="M0 140.601v-140.601h142.278v140.601z" fill="#233565" stroke="transparent" stroke-width="0" rx="0%" data-fill-palette-color="tertiary"></path><path d="M3.283 137.317v-134.034h135.712v134.034z" fill="#ffffff" stroke="transparent" stroke-width="0" rx="0%" data-fill-palette-color="quaternary"></path><path d="M9.85 130.751v-120.901h122.578v120.901z" fill="#233565" stroke="transparent" stroke-width="0" data-fill-palette-color="tertiary"></path></g><g transform="matrix(1,0,0,1,19.699740000000006,19.69974)" id="textblocktransform"><svg viewBox="0 0 102.87882664657124 101.20104000000002" height="101.20104000000002" width="102.87882664657124" id="textblock"><g><svg viewBox="0 0 102.87882664657124 101.20104000000002" height="101.20104000000002" width="102.87882664657124"><g transform="matrix(1,0,0,1,0,0)"><svg width="102.87882664657124" viewBox="-0.6299999952316284 -32.400001525878906 32.93000030517578 32.400001525878906" height="101.20104000000002" data-palette-color="#ffffff"><path d="M10.35 0L10.35-10.3-0.63-32.4 9.96-32.4 21.17-9.55 21.17 0 10.35 0ZM32.3-32.4L21.85-11.82 16.6-22.46 21.92-32.4 32.3-32.4Z" opacity="1" transform="matrix(1,0,0,1,0,0)" fill="#ffffff" class="wordmark-text-0" data-fill-palette-color="quaternary" id="text-0"></path></svg></g></svg></g></svg></g></svg></g><g></g></svg></g><defs></defs></svg><rect width="142.27830664657125" height="140.60052000000002" fill="none" stroke="none" visibility="hidden"></rect></g></svg></g></svg>